<svg width="24" height="24" viewBox="0 0 24 24" fill="none" xmlns="http://www.w3.org/2000/svg">
<path d="M15.7409 4C15.6723 4.32311 15.6364 4.65753 15.6364 5C15.6364 5.34247 15.6723 5.67689 15.7409 6H3.62562L11.5193 12.662L16.7966 8.14141C17.2425 8.66888 17.7983 9.10787 18.4307 9.42652L11.5296 15.338L3.09091 8.21594V20H19.8182V9.89998C20.156 9.96557 20.5056 10 20.8636 10C21.2217 10 21.5713 9.96557 21.9091 9.89998V21C21.9091 21.5523 21.441 22 20.8636 22H2.04545C1.46807 22 1 21.5523 1 21V5C1 4.44772 1.46807 4 2.04545 4H15.7409ZM20.8636 2C22.5958 2 24 3.34315 24 5C24 6.65685 22.5958 8 20.8636 8C19.1314 8 17.7273 6.65685 17.7273 5C17.7273 3.34315 19.1314 2 20.8636 2Z" fill="white"/>
</svg>
